<?xml version="1.0" encoding="UTF-8" standalone="no"?>
<!-- Created with Inkscape (http://www.inkscape.org/) -->

<svg
   xmlns:dc="http://purl.org/dc/elements/1.1/"
   xmlns:cc="http://creativecommons.org/ns#"
   xmlns:rdf="http://www.w3.org/1999/02/22-rdf-syntax-ns#"
   xmlns:svg="http://www.w3.org/2000/svg"
   xmlns="http://www.w3.org/2000/svg"
   xmlns:sodipodi="http://sodipodi.sourceforge.net/DTD/sodipodi-0.dtd"
   xmlns:inkscape="http://www.inkscape.org/namespaces/inkscape"
   width="63.08625"
   height="63.02"
   id="svg3241"
   version="1.1"
   inkscape:version="0.48.1 "
   sodipodi:docname="New document 8">
  <defs
     id="defs3243" />
  <sodipodi:namedview
     id="base"
     pagecolor="#ffffff"
     bordercolor="#666666"
     borderopacity="1.0"
     inkscape:pageopacity="0.0"
     inkscape:pageshadow="2"
     inkscape:zoom="2.8"
     inkscape:cx="31.681604"
     inkscape:cy="22.696595"
     inkscape:document-units="px"
     inkscape:current-layer="layer1"
     showgrid="false"
     fit-margin-top="0"
     fit-margin-left="0"
     fit-margin-right="0"
     fit-margin-bottom="0"
     inkscape:window-width="475"
     inkscape:window-height="426"
     inkscape:window-x="489"
     inkscape:window-y="279"
     inkscape:window-maximized="0" />
  <metadata
     id="metadata3246">
    <rdf:RDF>
      <cc:Work
         rdf:about="">
        <dc:format>image/svg+xml</dc:format>
        <dc:type
           rdf:resource="http://purl.org/dc/dcmitype/StillImage" />
        <dc:title></dc:title>
      </cc:Work>
    </rdf:RDF>
  </metadata>
  <g
     inkscape:label="Layer 1"
     inkscape:groupmode="layer"
     id="layer1"
     transform="translate(-165.59973,-389.42361)">
    <path
       inkscape:connector-curvature="0"
       d="m 197.17473,452.44361 c -17.45625,0 -31.575,-14.12375 -31.575,-31.50875 0,-17.45625 14.11875,-31.51125 31.575,-31.51125 17.3925,0 31.51125,14.055 31.51125,31.51125 0,17.385 -14.11875,31.50875 -31.51125,31.50875"
       style="fill:#231f20;fill-opacity:1;fill-rule:nonzero;stroke:none"
       id="path3035" />
    <path
       inkscape:connector-curvature="0"
       d="m 205.41473,445.02986 c 2.08875,-5.29625 3.3975,-18.895 -2.0275,-22.75125 -3.00875,-2.1575 -4.83875,0.915 -5.29625,-0.72125 -1.0475,-3.725 -3.3325,-10.72 -7.51875,-8.17125 -3.07125,1.9 -3.005,6.79875 -0.52125,8.23875 2.485,1.43875 5.94875,1.63625 6.0125,2.22125 0.1975,1.5675 -3.4625,2.68125 -0.85,7.51875 3.4,6.2775 0.19625,11.7025 -0.78125,14.645 -9.41625,-0.65625 -19.81,-8.49875 -21.05375,-16.28125 -1.37375,-8.9525 4.18625,-6.73 3.85625,-9.2125 -0.4575,-3.4025 -8.95375,-11.9675 -1.175,-13.4725 7.65,-1.435 3.4,9.41625 4.1175,12.55625 0.26125,1.30625 2.61875,-0.7875 3.855,-1.0475 -0.12625,-1.11375 -0.3225,-3.795 -0.195,-4.51125 1.11375,-5.035 5.69,-3.85875 5.29875,-6.08 -0.395,-2.22375 -7.97625,-12.095 0.52125,-12.55375 7.77875,-0.39125 2.87875,9.025 3.00625,11.96625 0.1325,2.9425 5.29625,0.26 6.865,5.55375 1.50375,-0.84875 3.075,-0.65125 3.27,-1.82875 0.65375,-3.27 -6.6675,-14.3175 2.55,-13.40375 8.04,0.785 1.10875,10.13375 0.84875,13.20625 -0.26,3.14 4.12,2.3575 4.8375,4.96875 0.655,2.48625 0.26125,4.5775 0.19875,5.22875 1.4375,-0.3875 3.59375,-0.51875 3.52625,-1.955 -0.0662,-3.0775 -4.575,-11.83625 2.815,-11.965 7.7125,-0.2 0.58875,10.3275 0.32625,12.74625 -0.265,2.35375 4.31375,0.59125 3.79,7.25625 -0.4575,6.60125 -7.77625,15.56125 -16.27625,17.84875 z m -8.0425,0.98 c 1.435,-2.55 3.39875,-7.39 4.315,-7.45375 1.11125,-0.12875 0.98,4.44625 0.7175,7.12625 -1.43625,0.26125 -3.53125,0.3275 -5.0325,0.3275"
       style="fill:#ffffff;fill-opacity:1;fill-rule:nonzero;stroke:none"
       id="path3037" />
  </g>
</svg>
