<?xml version="1.0" encoding="UTF-8" standalone="no"?>
<!-- Created with Inkscape (http://www.inkscape.org/) -->

<svg
   xmlns:dc="http://purl.org/dc/elements/1.1/"
   xmlns:cc="http://creativecommons.org/ns#"
   xmlns:rdf="http://www.w3.org/1999/02/22-rdf-syntax-ns#"
   xmlns:svg="http://www.w3.org/2000/svg"
   xmlns="http://www.w3.org/2000/svg"
   xmlns:sodipodi="http://sodipodi.sourceforge.net/DTD/sodipodi-0.dtd"
   xmlns:inkscape="http://www.inkscape.org/namespaces/inkscape"
   width="100.11"
   height="100.00375"
   id="svg3281"
   version="1.1"
   inkscape:version="0.48.1 "
   sodipodi:docname="New document 13">
  <defs
     id="defs3283" />
  <sodipodi:namedview
     id="base"
     pagecolor="#ffffff"
     bordercolor="#666666"
     borderopacity="1.0"
     inkscape:pageopacity="0.0"
     inkscape:pageshadow="2"
     inkscape:zoom="0.35"
     inkscape:cx="390.76929"
     inkscape:cy="-81.426693"
     inkscape:document-units="px"
     inkscape:current-layer="layer1"
     showgrid="false"
     fit-margin-top="0"
     fit-margin-left="0"
     fit-margin-right="0"
     fit-margin-bottom="0"
     inkscape:window-width="475"
     inkscape:window-height="426"
     inkscape:window-x="1468"
     inkscape:window-y="731"
     inkscape:window-maximized="0" />
  <metadata
     id="metadata3286">
    <rdf:RDF>
      <cc:Work
         rdf:about="">
        <dc:format>image/svg+xml</dc:format>
        <dc:type
           rdf:resource="http://purl.org/dc/dcmitype/StillImage" />
        <dc:title></dc:title>
      </cc:Work>
    </rdf:RDF>
  </metadata>
  <g
     inkscape:label="Layer 1"
     inkscape:groupmode="layer"
     id="layer1"
     transform="translate(15.769286,-350.93174)">
    <path
       inkscape:connector-curvature="0"
       d="m 34.335714,450.93549 c -27.6974997,0 -50.105,-22.41 -50.105,-50.00125 0,-27.69875 22.4075003,-50.0025 50.105,-50.0025 27.595,0 50.005,22.30375 50.005,50.0025 0,27.59125 -22.41,50.00125 -50.005,50.00125"
       style="fill:#231f20;fill-opacity:1;fill-rule:nonzero;stroke:none"
       id="path3015" />
    <path
       inkscape:connector-curvature="0"
       d="m 24.378214,431.70049 0,-16.59875 -7.7825,0 0,16.59875 -11.5162497,0 0,-55.5025 6.4362497,-6.53375 18.05,0 6.3275,6.63625 0,55.4 -11.515,0 z m -7.7825,-26.97625 7.7825,0 0,-24.5825 -7.7825,0 0,24.5825 z m 26.665,26.97625 0,-62.03625 11.6175,0 0,52.38625 10.37375,0 0,9.65 -21.99125,0"
       style="fill:#ffffff;fill-opacity:1;fill-rule:nonzero;stroke:none"
       id="path3017" />
  </g>
</svg>
