<?xml version="1.0" encoding="UTF-8"?>
<!-- Generator: Adobe Illustrator 15.0.2, SVG Export Plug-In . SVG Version: 6.00 Build 0)  -->
<svg 
  xmlns="http://www.w3.org/2000/svg" xmlns:xlink="http://www.w3.org/1999/xlink" version="1.1" id="Layer_1" x="0px" y="0px" width="512px" height="514.128px" viewBox="0 0 512 514.128" enable-background="new 0 0 512 514.128" xml:space="preserve">
<path d="M159.92,460.255C89.979,427.053,39.739,359.032,32.139,278.489H0c10.925,131.958,121.245,235.639,256,235.639  c4.824,0,9.426-0.415,14.139-0.745l-81.612-81.724L159.92,460.255z M178.984,320.479c-4.075,0-7.825-0.531-11.256-1.819  c-3.313-1.17-6.207-2.894-8.563-5.031c-2.352-2.149-4.181-4.819-5.458-7.819c-1.281-3.106-1.925-6.426-1.925-10.085h-27.856  c0,7.724,1.505,14.468,4.5,20.361c2.994,5.894,6.963,10.809,11.994,14.681c5.032,3.958,10.825,6.852,17.463,8.873  c6.644,2.148,13.495,3.106,20.782,3.106c7.931,0,15.319-1.064,22.181-3.202c6.852-2.139,12.745-5.362,17.776-9.532  c5.032-4.191,8.889-9.33,11.787-15.437c2.793-6.106,4.282-13.063,4.282-20.883c0-4.17-0.532-8.139-1.489-12.011  c-1.069-3.851-2.681-7.489-4.819-10.915c-2.255-3.425-5.138-6.431-8.681-9.213c-3.526-2.675-7.92-4.931-12.952-6.75  c4.282-1.931,8.026-4.281,11.255-7.068c3.202-2.782,5.894-5.787,8.027-8.894c2.133-3.202,3.744-6.415,4.813-9.846  c1.069-3.421,1.602-6.852,1.602-10.176c0-7.809-1.271-14.671-3.856-20.564c-2.569-5.894-6.208-10.818-10.926-14.776  c-4.718-3.963-10.282-6.957-16.931-8.994c-6.852-2.149-14.139-3.106-22.059-3.106c-7.713,0-14.889,1.175-21.426,3.42  c-6.537,2.255-12.102,5.457-16.809,9.532c-4.707,4.074-8.356,8.888-11.037,14.468c-2.681,5.574-3.963,11.665-3.963,18.202h27.852  c0-3.639,0.644-6.852,1.931-9.639c1.287-2.898,3.106-5.351,5.361-7.276c2.256-2.037,5.032-3.638,8.133-4.718  c3.117-1.069,6.537-1.713,10.176-1.713c8.574,0,14.894,2.255,19.063,6.648c4.176,4.389,6.213,10.596,6.213,18.527  c0,3.856-0.537,7.276-1.713,10.394c-1.175,3.106-2.898,5.787-5.25,8.026c-2.351,2.245-5.361,3.968-8.781,5.25  c-3.527,1.287-7.713,1.931-12.431,1.931h-16.49v21.963h16.49c4.718,0,9.01,0.532,12.75,1.606c3.744,1.074,6.957,2.681,9.638,5.043  c2.681,2.233,4.708,5.138,6.208,8.553c1.388,3.426,2.138,7.5,2.138,12.213c0,8.681-2.463,15.309-7.494,19.926  C194.409,318.234,187.665,320.479,178.984,320.479z M362.361,193.548c-6.744-7.059-14.894-12.526-24.309-16.383  c-9.531-3.856-19.925-5.787-31.394-5.787H256v171.367h49.17c11.894,0,22.596-1.926,32.341-5.767  c9.755-3.861,17.989-9.319,24.851-16.404c6.852-7.063,12.213-15.638,15.852-25.596c3.744-9.968,5.574-21.202,5.574-33.638v-8.469  c0-12.415-1.937-23.563-5.681-33.627C374.341,209.191,369.117,200.628,362.361,193.548z M353.894,261.457  c0,8.884-0.957,17.032-3.106,24.096c-2.042,7.182-5.042,13.182-9.096,18.096c-4.074,4.937-9.117,8.682-15.202,11.362  c-6.117,2.563-13.191,3.968-21.319,3.968h-19.404V195.378h20.894c15.426,0,27.106,4.936,35.234,14.675  c8.032,9.856,12.117,23.995,12.117,42.623v8.792h-0.117V261.457z M256,0c-4.813,0-9.426,0.436-14.128,0.75l81.617,81.724  l28.489-28.495c70.054,33.096,120.276,101.112,127.883,181.66H512C501.074,103.687,390.745,0,256,0z" fill="#000000"/>
</svg>
