<?xml version="1.0" encoding="UTF-8" standalone="no"?>
<!-- Created with Inkscape (http://www.inkscape.org/) -->

<svg
   xmlns:dc="http://purl.org/dc/elements/1.1/"
   xmlns:cc="http://creativecommons.org/ns#"
   xmlns:rdf="http://www.w3.org/1999/02/22-rdf-syntax-ns#"
   xmlns:svg="http://www.w3.org/2000/svg"
   xmlns="http://www.w3.org/2000/svg"
   xmlns:sodipodi="http://sodipodi.sourceforge.net/DTD/sodipodi-0.dtd"
   xmlns:inkscape="http://www.inkscape.org/namespaces/inkscape"
   width="63.08625"
   height="63.02"
   id="svg3217"
   version="1.1"
   inkscape:version="0.48.1 "
   sodipodi:docname="New document 5">
  <defs
     id="defs3219" />
  <sodipodi:namedview
     id="base"
     pagecolor="#ffffff"
     bordercolor="#666666"
     borderopacity="1.0"
     inkscape:pageopacity="0.0"
     inkscape:pageshadow="2"
     inkscape:zoom="0.35"
     inkscape:cx="60.82884"
     inkscape:cy="137.22429"
     inkscape:document-units="px"
     inkscape:current-layer="layer1"
     showgrid="false"
     fit-margin-top="0"
     fit-margin-left="0"
     fit-margin-right="0"
     fit-margin-bottom="0"
     inkscape:window-width="475"
     inkscape:window-height="426"
     inkscape:window-x="906"
     inkscape:window-y="167"
     inkscape:window-maximized="0" />
  <metadata
     id="metadata3222">
    <rdf:RDF>
      <cc:Work
         rdf:about="">
        <dc:format>image/svg+xml</dc:format>
        <dc:type
           rdf:resource="http://purl.org/dc/dcmitype/StillImage" />
        <dc:title></dc:title>
      </cc:Work>
    </rdf:RDF>
  </metadata>
  <g
     inkscape:label="Layer 1"
     inkscape:groupmode="layer"
     id="layer1"
     transform="translate(-314.17116,-606.56647)">
    <path
       inkscape:connector-curvature="0"
       d="m 345.74866,669.58647 c -17.45625,0 -31.5775,-14.1225 -31.5775,-31.50875 0,-17.4575 14.12125,-31.51125 31.5775,-31.51125 17.39,0 31.50875,14.05375 31.50875,31.51125 0,17.38625 -14.11875,31.50875 -31.50875,31.50875"
       style="fill:#231f20;fill-opacity:1;fill-rule:nonzero;stroke:none"
       id="path3039" />
    <path
       inkscape:connector-curvature="0"
       d="m 334.11241,659.09897 c -2.745,-1.96125 -3.92,-6.5375 -2.4175,-8.9575 -2.68,0.91625 -7.38875,0.72 -9.5475,-2.2225 -1.83125,-2.61375 -2.68,-8.565 0.45875,-13.27125 3.79125,-5.75375 9.73875,-5.0975 13.79125,-2.35375 6.01875,4.05375 8.56875,6.99625 7.84875,9.15375 -0.2625,0.71875 -0.85125,1.2425 -1.70125,1.5025 -2.81125,0.85125 -10.1325,-1.96 -12.945,-6.08125 -0.585,-0.8475 -3.26625,1.31 -1.3075,3.59625 1.50375,1.83 4.0525,3.4 6.34375,3.925 -0.0675,0.98 0.32625,2.67875 1.04625,3.66 1.7,2.2225 4.51,2.81125 6.6025,2.02625 -0.9175,1.7 -1.5725,4.18375 -0.5225,5.62125 1.0475,1.44 2.41875,2.22375 3.79125,2.09375 -2.81375,3.92375 -8.9575,3.13625 -11.44125,1.3075 z m 26.27875,-7.71625 c 0.32875,1.8975 1.05,8.36875 1.05,8.36875 0.1925,1.37375 -0.7875,1.8975 -1.3725,1.7 l -7.97875,-2.81 c -0.32375,-0.065 -0.45875,-0.52125 -0.32375,-0.9175 0.13,-0.39 0.4575,-0.58625 0.78125,-0.45625 l 6.07875,0.7175 -1.11,-6.73375 c -0.12875,-0.71625 0.3925,-1.69875 1.11,-2.15625 l 5.75625,-3.92125 -8.43625,-6.34 c -0.52,-0.525 -0.4575,-1.24375 -0.12625,-1.7 l 6.275,-9.8725 -11.38,0.13 c -0.7175,0 -1.23875,-0.5875 -1.3725,-1.37375 l -1.23875,-7.845 -6.01625,4.24875 c -1.04625,0.7225 -1.76375,0.84875 -2.81,0.26375 l -5.1025,-4.18625 -0.915,6.67125 c -0.1275,0.91625 -1.7625,1.305 -1.7625,0 l -0.0688,-9.87375 c 0,-1.3075 1.44125,-1.83 2.09625,-1.24125 0,0 5.425,4.83875 7.12625,6.4075 3.1375,-3.0075 6.8625,-6.4075 8.30125,-7.65 0.91625,-0.85 2.5525,-0.39125 2.615,0.72 10e-4,0 0.45625,6.6675 0.5225,10.85125 4.185,-0.58625 12.16,-1.765 12.16,-1.765 3.59625,-0.52375 4.3175,2.745 2.94375,4.57625 0,0 -4.055,5.94875 -8.04,10.395 5.09625,2.48125 9.805,4.96625 9.805,4.96625 2.0225,1.04875 1.1775,3.46625 0.195,3.99 0,0 -4.11875,2.3525 -8.7625,4.83625 z m -18.10625,-17.39 c -0.9175,-0.84875 -2.1575,-1.95875 -3.66,-3.00875 -1.1775,-0.78 -3.6625,-1.95625 -5.03375,-2.22 2.745,-2.0925 6.7325,-4.38 9.4125,-1.24125 2.025,2.35375 1.1125,4.7075 -0.71875,6.47 z m 5.555,10.59 c -5.62125,4.31625 -8.36625,3.5975 -9.93625,1.6375 -0.32875,-0.39125 -0.59,-1.1125 -0.65375,-1.44125 2.3525,0.655 4.57625,0.655 6.2775,0.135 1.43875,-0.45875 2.48375,-1.3725 3.00625,-2.7475 0.7825,-2.2875 -0.65375,-4.9675 -2.81,-7.1275 2.94125,-2.35125 5.95,-2.35125 7.9075,0.39375 2.5525,3.5975 -0.97875,6.99625 -3.79125,9.15 z m 4.445,8.82625 c -3.52875,2.88 -6.4675,1.76875 -7.31875,0.65625 -1.1775,-1.56875 -0.72,-3.98875 3.26625,-6.99625 2.15875,-1.635 4.84,-3.2675 6.79625,-0.5225 1.965,2.74375 -0.58125,5.16625 -2.74375,6.8625"
       style="fill:#ffffff;fill-opacity:1;fill-rule:nonzero;stroke:none"
       id="path3041" />
  </g>
</svg>
