<?xml version="1.0" encoding="UTF-8" standalone="no"?>
<!-- Created with Inkscape (http://www.inkscape.org/) -->

<svg
   xmlns:dc="http://purl.org/dc/elements/1.1/"
   xmlns:cc="http://creativecommons.org/ns#"
   xmlns:rdf="http://www.w3.org/1999/02/22-rdf-syntax-ns#"
   xmlns:svg="http://www.w3.org/2000/svg"
   xmlns="http://www.w3.org/2000/svg"
   xmlns:sodipodi="http://sodipodi.sourceforge.net/DTD/sodipodi-0.dtd"
   xmlns:inkscape="http://www.inkscape.org/namespaces/inkscape"
   width="63.08625"
   height="63.021252"
   id="svg3209"
   version="1.1"
   inkscape:version="0.48.1 "
   sodipodi:docname="New document 4">
  <defs
     id="defs3211" />
  <sodipodi:namedview
     id="base"
     pagecolor="#ffffff"
     bordercolor="#666666"
     borderopacity="1.0"
     inkscape:pageopacity="0.0"
     inkscape:pageshadow="2"
     inkscape:zoom="1.979899"
     inkscape:cx="44.814758"
     inkscape:cy="26.619999"
     inkscape:document-units="px"
     inkscape:current-layer="layer1"
     showgrid="false"
     fit-margin-top="0"
     fit-margin-left="0"
     fit-margin-right="0"
     fit-margin-bottom="0"
     inkscape:window-width="475"
     inkscape:window-height="426"
     inkscape:window-x="1057"
     inkscape:window-y="296"
     inkscape:window-maximized="0" />
  <metadata
     id="metadata3214">
    <rdf:RDF>
      <cc:Work
         rdf:about="">
        <dc:format>image/svg+xml</dc:format>
        <dc:type
           rdf:resource="http://purl.org/dc/dcmitype/StillImage" />
        <dc:title></dc:title>
      </cc:Work>
    </rdf:RDF>
  </metadata>
  <g
     inkscape:label="Layer 1"
     inkscape:groupmode="layer"
     id="layer1"
     transform="translate(-191.31402,-463.7087)">
    <path
       inkscape:connector-curvature="0"
       d="m 222.88902,526.72995 c -17.45375,0 -31.575,-14.125 -31.575,-31.51 0,-17.4575 14.12125,-31.51125 31.575,-31.51125 17.3925,0 31.51125,14.05375 31.51125,31.51125 0,17.385 -14.11875,31.51 -31.51125,31.51"
       style="fill:#231f20;fill-opacity:1;fill-rule:nonzero;stroke:none"
       id="path3047" />
    <path
       inkscape:connector-curvature="0"
       d="m 219.29652,489.50495 c -0.7225,0.78125 -0.98125,9.01875 -2.87625,9.935 -1.83,0.8475 -7.455,-4.70625 -8.36875,-4.51375 -1.17625,0.265 -1.30875,10.46375 -4.7075,12.35625 -4.9025,2.8125 -7.3225,-4.51 -2.42,-5.94625 2.5525,-0.7875 2.48625,-10.5275 4.97125,-11.705 1.89625,-0.91125 8.4325,5.88625 9.215,5.43 0.9825,-0.65625 1.635,-6.93375 2.6825,-7.71375 0.85125,-0.65375 6.66625,-1.8975 8.825,-2.1625 0.85,-0.0638 0.97875,0.8525 0.2625,1.24625 -1.8975,0.97875 -7.12625,2.48375 -7.58375,3.07375 z m 4.5775,-7.52375 c -0.985,-0.6525 -3.46625,-2.02625 -4.12,-1.95625 -0.7875,0.065 -3.595,3.985 -5.1025,3.59125 -1.50125,-0.38875 -2.34875,-5.5525 -3.5275,-5.75125 -1.9625,-0.39375 -5.22875,4.97 -6.4075,0.91625 -1.17625,-4.0525 5.95125,-5.1 7.7825,-4.315 1.3025,0.5925 2.415,5.23125 3.13625,5.42625 0.98125,0.1975 3.0725,-2.3525 4.31625,-2.3525 1.175,0 3.5925,2.415 4.5075,3.6625 0.52375,0.6525 -0.0625,1.10875 -0.585,0.77875 z m 16.80125,9.02625 c -3.33625,4.445 -5.68625,4.37875 -6.01625,5.6875 -0.655,2.54625 2.61375,1.69875 2.22125,4.9025 -0.3925,2.8125 -2.09,3.595 -2.2875,7.71625 -0.195,3.46375 2.03,9.41125 0.5225,9.93625 -1.83,0.585 -4.31625,-8.5 -6.275,-8.30125 -2.02375,0.25625 -0.13,11.435 -2.02375,10.97875 -3.3375,-0.84875 -6.0825,-18.82875 -1.63625,-23.53375 2.2875,-2.41625 4.18625,-0.7175 5.23,-2.3525 1.3725,-2.2225 -3.53,-1.96125 -1.7625,-7.26 2.93875,4.3825 6.20625,5.2325 8.3,2.8125 2.68125,-3.07125 3.33375,-11.56875 -5.81625,-12.87625 1.6325,-4.385 6.92625,-5.36125 10.65125,-2.48625 3.98875,3.1375 1.83375,10.85375 -1.1075,14.77625"
       style="fill:#ffffff;fill-opacity:1;fill-rule:nonzero;stroke:none"
       id="path3049" />
  </g>
</svg>
