<?xml version="1.0" encoding="UTF-8" standalone="no"?>
<!-- Created with Inkscape (http://www.inkscape.org/) -->

<svg
   xmlns:dc="http://purl.org/dc/elements/1.1/"
   xmlns:cc="http://creativecommons.org/ns#"
   xmlns:rdf="http://www.w3.org/1999/02/22-rdf-syntax-ns#"
   xmlns:svg="http://www.w3.org/2000/svg"
   xmlns="http://www.w3.org/2000/svg"
   xmlns:sodipodi="http://sodipodi.sourceforge.net/DTD/sodipodi-0.dtd"
   xmlns:inkscape="http://www.inkscape.org/namespaces/inkscape"
   width="100.1075"
   height="100.0025"
   id="svg3265"
   version="1.1"
   inkscape:version="0.48.1 "
   sodipodi:docname="New document 11">
  <defs
     id="defs3267" />
  <sodipodi:namedview
     id="base"
     pagecolor="#ffffff"
     bordercolor="#666666"
     borderopacity="1.0"
     inkscape:pageopacity="0.0"
     inkscape:pageshadow="2"
     inkscape:zoom="0.35"
     inkscape:cx="107.91089"
     inkscape:cy="-47.141603"
     inkscape:document-units="px"
     inkscape:current-layer="layer1"
     showgrid="false"
     fit-margin-top="0"
     fit-margin-left="0"
     fit-margin-right="0"
     fit-margin-bottom="0"
     inkscape:window-width="475"
     inkscape:window-height="426"
     inkscape:window-x="1381"
     inkscape:window-y="815"
     inkscape:window-maximized="0" />
  <metadata
     id="metadata3270">
    <rdf:RDF>
      <cc:Work
         rdf:about="">
        <dc:format>image/svg+xml</dc:format>
        <dc:type
           rdf:resource="http://purl.org/dc/dcmitype/StillImage" />
        <dc:title></dc:title>
      </cc:Work>
    </rdf:RDF>
  </metadata>
  <g
     inkscape:label="Layer 1"
     inkscape:groupmode="layer"
     id="layer1"
     transform="translate(-267.08911,-385.21808)">
    <path
       inkscape:connector-curvature="0"
       d="m 317.19411,485.22058 c -27.6975,0 -50.105,-22.40625 -50.105,-50 0,-27.6975 22.4075,-50.0025 50.105,-50.0025 27.5925,0 50.0025,22.305 50.0025,50.0025 0,27.59375 -22.41,50 -50.0025,50"
       style="fill:#231f20;fill-opacity:1;fill-rule:nonzero;stroke:none"
       id="path3023" />
    <path
       inkscape:connector-curvature="0"
       d="m 291.77536,466.08683 0,-52.28 -7.7775,0 0,-6.01625 10.37375,-3.635 9.5425,0 0,61.93125 -12.13875,0 z m 32.99125,-16.18375 0,5.295 21.06,0 0,10.88875 -33.30125,0 0,-21.78 21.26875,-17.6375 0,-11.92875 -8.9225,0 0,8.1925 -12.34625,0 0,-12.3425 6.4325,-6.435 20.64375,0 6.43125,6.5375 0,21.4725 -21.26625,17.7375"
       style="fill:#ffffff;fill-opacity:1;fill-rule:nonzero;stroke:none"
       id="path3025" />
  </g>
</svg>
