<?xml version="1.0" encoding="UTF-8" standalone="no"?>
<!-- Created with Inkscape (http://www.inkscape.org/) -->

<svg
   xmlns:dc="http://purl.org/dc/elements/1.1/"
   xmlns:cc="http://creativecommons.org/ns#"
   xmlns:rdf="http://www.w3.org/1999/02/22-rdf-syntax-ns#"
   xmlns:svg="http://www.w3.org/2000/svg"
   xmlns="http://www.w3.org/2000/svg"
   xmlns:sodipodi="http://sodipodi.sourceforge.net/DTD/sodipodi-0.dtd"
   xmlns:inkscape="http://www.inkscape.org/namespaces/inkscape"
   width="100.11"
   height="100.0025"
   id="svg3257"
   version="1.1"
   inkscape:version="0.48.1 "
   sodipodi:docname="New document 10">
  <defs
     id="defs3259" />
  <sodipodi:namedview
     id="base"
     pagecolor="#ffffff"
     bordercolor="#666666"
     borderopacity="1.0"
     inkscape:pageopacity="0.0"
     inkscape:pageshadow="2"
     inkscape:zoom="0.35"
     inkscape:cx="116.48357"
     inkscape:cy="7.1441074"
     inkscape:document-units="px"
     inkscape:current-layer="layer1"
     showgrid="false"
     fit-margin-top="0"
     fit-margin-left="0"
     fit-margin-right="0"
     fit-margin-bottom="0"
     inkscape:window-width="475"
     inkscape:window-height="426"
     inkscape:window-x="1092"
     inkscape:window-y="441"
     inkscape:window-maximized="0" />
  <metadata
     id="metadata3262">
    <rdf:RDF>
      <cc:Work
         rdf:about="">
        <dc:format>image/svg+xml</dc:format>
        <dc:type
           rdf:resource="http://purl.org/dc/dcmitype/StillImage" />
        <dc:title></dc:title>
      </cc:Work>
    </rdf:RDF>
  </metadata>
  <g
     inkscape:label="Layer 1"
     inkscape:groupmode="layer"
     id="layer1"
     transform="translate(-258.51643,-439.50379)">
    <path
       inkscape:connector-curvature="0"
       d="m 308.62143,539.50629 c -27.6975,0 -50.105,-22.40875 -50.105,-49.99875 0,-27.70125 22.4075,-50.00375 50.105,-50.00375 27.595,0 50.005,22.3025 50.005,50.00375 0,27.59 -22.41,49.99875 -50.005,49.99875"
       style="fill:#231f20;fill-opacity:1;fill-rule:nonzero;stroke:none"
       id="path3027" />
    <path
       inkscape:connector-curvature="0"
       d="m 282.68643,520.37379 0,-52.28375 -7.78125,0 0,-6.0175 10.48,-3.635 9.44,0 0,61.93625 -12.13875,0 z m 47.72,0 -20.4375,0 -6.43,-6.4275 0,-48.8625 6.33,-6.64625 20.5375,0 6.4325,6.54 0,11.82375 -12.13625,0 0,-7.88125 -8.92375,0 0,17.94625 3.73875,-3.63375 10.88875,0 6.4325,6.335 0,24.4825 -6.4325,6.32375 z m -14.6275,-10.47875 9.0275,0 0,-16.285 -9.0275,0 0,16.285 z"
       style="fill:#ffffff;fill-opacity:1;fill-rule:nonzero;stroke:none"
       id="path3029" />
  </g>
</svg>
