<?xml version="1.0" encoding="UTF-8" standalone="no"?>
<!-- Created with Inkscape (http://www.inkscape.org/) -->

<svg
   xmlns:dc="http://purl.org/dc/elements/1.1/"
   xmlns:cc="http://creativecommons.org/ns#"
   xmlns:rdf="http://www.w3.org/1999/02/22-rdf-syntax-ns#"
   xmlns:svg="http://www.w3.org/2000/svg"
   xmlns="http://www.w3.org/2000/svg"
   xmlns:sodipodi="http://sodipodi.sourceforge.net/DTD/sodipodi-0.dtd"
   xmlns:inkscape="http://www.inkscape.org/namespaces/inkscape"
   width="63.083752"
   height="63.021252"
   id="svg3233"
   version="1.1"
   inkscape:version="0.48.1 "
   sodipodi:docname="New document 7">
  <defs
     id="defs3235" />
  <sodipodi:namedview
     id="base"
     pagecolor="#ffffff"
     bordercolor="#666666"
     borderopacity="1.0"
     inkscape:pageopacity="0.0"
     inkscape:pageshadow="2"
     inkscape:zoom="2.8"
     inkscape:cx="30.207525"
     inkscape:cy="29.580267"
     inkscape:document-units="px"
     inkscape:current-layer="layer1"
     showgrid="false"
     fit-margin-top="0"
     fit-margin-left="0"
     fit-margin-right="0"
     fit-margin-bottom="0"
     inkscape:window-width="475"
     inkscape:window-height="426"
     inkscape:window-x="1325"
     inkscape:window-y="723"
     inkscape:window-maximized="0" />
  <metadata
     id="metadata3238">
    <rdf:RDF>
      <cc:Work
         rdf:about="">
        <dc:format>image/svg+xml</dc:format>
        <dc:type
           rdf:resource="http://purl.org/dc/dcmitype/StillImage" />
        <dc:title></dc:title>
      </cc:Work>
    </rdf:RDF>
  </metadata>
  <g
     inkscape:label="Layer 1"
     inkscape:groupmode="layer"
     id="layer1"
     transform="translate(-274.17241,-406.56584)">
    <path
       inkscape:connector-curvature="0"
       d="m 305.74741,469.58709 c -17.45625,0 -31.575,-14.1225 -31.575,-31.50875 0,-17.45625 14.11875,-31.5125 31.575,-31.5125 17.39,0 31.50875,14.05625 31.50875,31.5125 0,17.38625 -14.11875,31.50875 -31.50875,31.50875"
       style="fill:#231f20;fill-opacity:1;fill-rule:nonzero;stroke:none"
       id="path3051" />
    <path
       inkscape:connector-curvature="0"
       d="m 283.12866,435.10584 c -0.39375,0.32625 -0.9825,0.0675 -1.30875,-0.26125 0.195,0.5875 0.065,1.3075 -0.19625,1.50625 -0.39375,0.25875 -0.915,0.25875 -1.3075,-0.26375 0.32875,0.58875 0.26,1.2425 0.0637,1.56875 -0.25875,0.32875 -1.17375,0.3925 -1.8275,-0.39125 -1.0475,-1.37375 0,-3.14 0.91375,-2.485 -0.7175,-1.3725 0.58875,-2.8775 1.43875,-2.22375 -0.13125,-1.89375 1.63375,-2.485 2.3525,-0.915 0.45625,1.1125 0.39375,3.075 -0.12875,3.465 z m 9.3475,24.58125 c -1.70125,0.3925 -4.0525,-1.24375 -7.78125,-7.12625 -3.5925,-5.555 -4.315,-8.105 -4.50875,-10.65625 -0.19625,-2.41625 1.63375,-4.575 3.66,-5.4275 2.2225,-0.91125 4.7075,-0.65 5.09875,2.15875 0.525,3.26875 -5.81625,7.58375 -2.81,12.0925 3.26875,5.03625 5.75125,1.7025 7.65,4.58 0.91625,1.37125 0.585,3.92375 -1.30875,4.37875 z m -6.4725,-25.0375 c -0.915,-0.13 -1.83125,-3.53 -1.63375,-5.23125 0.195,-2.09375 2.81125,-2.55 3.72625,-0.5225 0.84875,2.02625 -0.915,5.88375 -2.0925,5.75375 z m 8.7625,13.5975 c -0.85125,0.9825 -2.55125,-0.655 -1.965,-2.415 -1.0425,0.9775 -2.35,-0.985 -1.3725,-2.9425 0.58875,-1.11375 1.635,-1.245 1.96375,-0.985 0.3275,0.33 0.5225,1.11125 0.195,1.8975 0.4575,-0.65375 1.04625,-0.78625 1.4375,-0.52375 0.3925,0.195 0.58875,1.04625 0.45875,1.83 0.325,-0.52375 0.98,-0.98 1.43625,-0.7175 0.72125,0.39 0.9825,2.94 0.59,4.445 -0.59,2.08875 -2.68125,1.69875 -2.74375,-0.58875 z m 3.13625,-21.31125 c -1.50375,5.95 4.705,8.17 5.035,11.83125 0.325,3.20375 -1.505,4.51125 -3.99,4.24875 -2.2875,-0.19375 -5.49125,-2.48125 -6.01125,-5.0975 -0.5925,-2.745 -0.1975,-5.49 1.96,-12.81375 2.1575,-7.52125 4.50875,-11.44 6.33875,-11.18 2.61625,0.3275 3.2725,2.8125 2.68375,4.6425 -1.11375,3.725 -3.99,0.655 -6.01625,8.36875 z m 0.84875,24.1875 c -0.325,-1.95875 0.52375,-6.3425 1.50625,-6.4725 1.3075,-0.13 3.59375,4.70625 2.745,7.125 -0.85125,2.29 -3.79375,1.8325 -4.25125,-0.6525 z m 13.73125,-8.1075 c -2.48625,0.2625 -4.3825,-1.045 -4.05375,-4.24875 0.39375,-3.66125 6.6025,-5.88125 5.0325,-11.83125 -2.025,-7.71375 -4.83625,-4.64375 -5.94875,-8.36875 -0.52625,-1.83 0,-4.315 2.61625,-4.6425 1.89875,-0.26 4.24875,3.65875 6.40625,11.18 2.09,7.32375 2.48375,10.06875 1.96,12.81375 -0.52375,2.61625 -3.725,4.90375 -6.0125,5.0975 z m -4.05375,8.76 c -0.8525,-2.41875 1.3725,-7.255 2.68125,-7.125 1.04375,0.13 1.895,4.51375 1.49875,6.4725 -0.455,2.485 -3.32875,2.9425 -4.18,0.6525 z m 10.13125,-5.94375 c 0.655,1.76 -1.10875,3.3975 -1.96125,2.415 0,2.2875 -2.15625,2.6775 -2.745,0.58875 -0.3925,-1.505 -0.065,-4.055 0.65375,-4.445 0.39125,-0.2625 1.0425,0.19375 1.3725,0.7175 -0.13,-0.78375 0.13,-1.635 0.46,-1.83 0.4575,-0.2625 1.04625,-0.13 1.43625,0.52375 -0.26125,-0.78625 -0.13,-1.5675 0.26125,-1.8975 0.2625,-0.26 1.31,-0.12875 1.89375,0.985 0.9825,1.9575 -0.32625,3.92 -1.37125,2.9425 z m 8.17375,6.72875 c -3.79375,5.8825 -6.1475,7.51875 -7.84625,7.12625 -1.83,-0.455 -2.2225,-3.0075 -1.31,-4.37875 1.89875,-2.8775 4.38125,0.45625 7.71625,-4.58 2.94125,-4.50875 -3.335,-8.82375 -2.80875,-12.0925 0.455,-2.80875 2.80875,-3.07 5.0325,-2.15875 2.02625,0.8525 3.8575,3.01125 3.725,5.4275 -0.195,2.55125 -0.98125,5.10125 -4.50875,10.65625 z m -1.30625,-17.91125 c -1.2475,0.13 -3.01,-3.7275 -2.095,-5.75375 0.8475,-2.0275 3.40125,-1.57125 3.66625,0.5225 0.19,1.70125 -0.72625,5.10125 -1.57125,5.23125 z m 5.62,3.00625 c -0.2625,-0.32625 -0.32625,-0.98 0,-1.56875 -0.39125,0.5225 -0.91625,0.5225 -1.30625,0.26375 -0.1975,-0.19875 -0.3275,-0.91875 -0.1975,-1.50625 -0.32875,0.32875 -0.84875,0.5875 -1.24125,0.26125 -0.5875,-0.39 -0.655,-2.3525 -0.13125,-3.465 0.65625,-1.57 2.485,-0.97875 2.28875,0.915 0.8525,-0.65375 2.22375,0.85125 1.43375,2.22375 0.9875,-0.655 1.96375,1.11125 0.91875,2.485 -0.5875,0.78375 -1.5,0.72 -1.765,0.39125"
       style="fill:#ffffff;fill-opacity:1;fill-rule:nonzero;stroke:none"
       id="path3053" />
  </g>
</svg>
