<?xml version="1.0" encoding="UTF-8" standalone="no"?>
<!-- Created with Inkscape (http://www.inkscape.org/) -->

<svg
   xmlns:dc="http://purl.org/dc/elements/1.1/"
   xmlns:cc="http://creativecommons.org/ns#"
   xmlns:rdf="http://www.w3.org/1999/02/22-rdf-syntax-ns#"
   xmlns:svg="http://www.w3.org/2000/svg"
   xmlns="http://www.w3.org/2000/svg"
   xmlns:sodipodi="http://sodipodi.sourceforge.net/DTD/sodipodi-0.dtd"
   xmlns:inkscape="http://www.inkscape.org/namespaces/inkscape"
   width="63.083752"
   height="63.02"
   id="svg3225"
   version="1.1"
   inkscape:version="0.48.1 "
   sodipodi:docname="New document 6">
  <defs
     id="defs3227" />
  <sodipodi:namedview
     id="base"
     pagecolor="#ffffff"
     bordercolor="#666666"
     borderopacity="1.0"
     inkscape:pageopacity="0.0"
     inkscape:pageshadow="2"
     inkscape:zoom="0.35"
     inkscape:cx="69.39902"
     inkscape:cy="-2.7757126"
     inkscape:document-units="px"
     inkscape:current-layer="layer1"
     showgrid="false"
     fit-margin-top="0"
     fit-margin-left="0"
     fit-margin-right="0"
     fit-margin-bottom="0"
     inkscape:window-width="475"
     inkscape:window-height="426"
     inkscape:window-x="907"
     inkscape:window-y="274"
     inkscape:window-maximized="0" />
  <metadata
     id="metadata3230">
    <rdf:RDF>
      <cc:Work
         rdf:about="">
        <dc:format>image/svg+xml</dc:format>
        <dc:type
           rdf:resource="http://purl.org/dc/dcmitype/StillImage" />
        <dc:title></dc:title>
      </cc:Work>
    </rdf:RDF>
  </metadata>
  <g
     inkscape:label="Layer 1"
     inkscape:groupmode="layer"
     id="layer1"
     transform="translate(-305.60098,-466.56647)">
    <path
       inkscape:connector-curvature="0"
       d="m 337.17598,529.58647 c -17.4575,0 -31.575,-14.12375 -31.575,-31.51 0,-17.45375 14.1175,-31.51 31.575,-31.51 17.3875,0 31.50875,14.05625 31.50875,31.51 0,17.38625 -14.12125,31.51 -31.50875,31.51"
       style="fill:#231f20;fill-opacity:1;fill-rule:nonzero;stroke:none"
       id="path3031" />
    <path
       inkscape:connector-curvature="0"
       d="m 359.53348,496.54647 c -1.24,1.30625 -7.51875,3.98875 -9.0175,4.2475 -1.965,0.39125 -10.595,0 -10.595,0.655 -0.0637,0.71875 7.4525,1.63375 8.825,2.15625 1.44125,0.52125 5.69,2.8075 6.73375,4.37875 1.3725,2.0275 2.55,10.33375 -0.785,10.3975 -1.43625,0.0625 -1.89375,-7.71625 -2.41875,-8.82875 -0.32625,-0.65125 -4.1825,-3.33125 -5.0975,-3.78875 -0.91625,-0.46 -7.71625,-2.75 -7.78125,-2.29125 -0.13,0.65375 5.16625,3.5325 6.60375,5.29875 1.1775,1.4375 1.96,5.9475 1.895,7.45 0,1.50375 -3.79,8.8275 -6.33875,7.52 -0.98375,-0.52375 2.48375,-7.3225 2.48375,-8.0425 -0.0662,-1.1775 0.065,-3.9225 -0.32875,-5.03375 -0.45625,-1.3075 -3.855,-5.2925 -4.51125,-4.96875 -0.26,0.13375 0.46,3.9225 -0.7175,3.9225 -0.915,0 -0.655,-3.98625 -1.635,-3.98625 -0.98125,0 -0.71875,3.98625 -1.635,3.98625 -1.11125,0 -0.45625,-3.78875 -0.71875,-3.9225 -0.65375,-0.32375 -4.0525,3.66125 -4.5125,4.96875 -0.39125,1.11125 -0.25875,3.85625 -0.25875,5.03375 -0.0675,0.72 3.46375,7.51875 2.41625,8.0425 -2.54875,1.3075 -6.2725,-6.01625 -6.34125,-7.52 -0.0625,-1.5025 0.7225,-6.0125 1.89875,-7.45 1.43625,-1.76625 6.73375,-4.645 6.6025,-5.29875 -0.0638,-0.45875 -6.865,1.83125 -7.77875,2.29125 -0.91875,0.4575 -4.775,3.1375 -5.03625,3.78875 -0.58625,1.1125 -0.98,8.89125 -2.48375,8.82875 -3.335,-0.0638 -2.1575,-8.37 -0.785,-10.3975 1.04625,-1.57125 5.3625,-3.8575 6.73625,-4.37875 1.43625,-0.5225 8.88875,-1.4375 8.825,-2.15625 0,-0.655 -8.56375,-0.26375 -10.5925,-0.655 -1.505,-0.25875 -7.77875,-2.94125 -9.02125,-4.2475 -1.8975,-1.965 -3.465,-10.3325 -0.0637,-14.05875 0.8475,-0.91375 2.22,10.2 3.07,11.31375 0.7875,1.11 5.49125,4.3775 6.865,4.6375 0.85,0.13625 10.00375,1.50625 10.20125,0.785 0.195,-0.64875 -8.1725,-2.6775 -10.135,-3.79 -2.55,-1.44 -3.7925,-9.87125 -3.4,-12.225 0.4575,-3.0075 6.34125,-12.74875 10.59,-11.245 1.1125,0.38875 -6.21,10.46 -6.535,12.29125 -0.19625,1.045 0.12875,8.23625 1.24,8.95625 0.3925,0.25875 8.89125,4.57125 9.2175,4.1175 0.33,-0.65375 -5.6225,-4.8375 -5.6225,-7.1925 0,-4.83625 5.23,-11.83 7.2575,-11.83 2.0925,0 7.2575,6.99375 7.2575,11.83 0,2.355 -5.95125,6.53875 -5.6225,7.1925 0.32375,0.45375 8.825,-3.85875 9.2825,-4.1175 1.04875,-0.72 1.3725,-7.91125 1.1775,-8.95625 -0.3275,-1.83125 -7.585,-11.9025 -6.4725,-12.29125 4.18375,-1.50375 10.06625,8.2375 10.525,11.245 0.39125,2.35375 -0.84875,10.785 -3.40125,12.225 -1.96,1.1125 -10.3275,3.14125 -10.1325,3.79 0.19875,0.72125 9.3525,-0.64875 10.26625,-0.785 1.3075,-0.26 6.0125,-3.5275 6.8625,-4.6375 0.7875,-1.11375 2.225,-12.2275 3.075,-11.31375 3.46375,3.66125 1.765,12.09375 -0.1325,14.05875"
       style="fill:#ffffff;fill-opacity:1;fill-rule:nonzero;stroke:none"
       id="path3033" />
  </g>
</svg>
